<?xml version="1.0" encoding="utf-8"?>
<!-- Generator: Adobe Illustrator 17.1.0, SVG Export Plug-In . SVG Version: 6.00 Build 0)  -->
<!DOCTYPE svg PUBLIC "-//W3C//DTD SVG 1.1//EN" "http://www.w3.org/Graphics/SVG/1.1/DTD/svg11.dtd">
<svg version="1.1" id="Layer_1" xmlns="http://www.w3.org/2000/svg" xmlns:xlink="http://www.w3.org/1999/xlink" x="0px" y="0px"
	 viewBox="0 0 612 792" enable-background="new 0 0 612 792" xml:space="preserve">
<g>
	<path fill-rule="evenodd" clip-rule="evenodd" fill="#E5E6E5" d="M313.3,357.5c0.8,0.7,1.3,1.4,1.3,2.2c0,5.6-23.9,10.1-53.3,10.1
		c-29.4,0-53.3-4.5-53.3-10.1c0-5.4,22.2-9.8,50.2-10.1c-0.1-0.2-0.2-0.5-0.2-0.7c0-4.8,26.4-8.7,59.1-8.7c32.6,0,59.1,3.9,59.1,8.7
		c0,4.8-26.4,8.7-59.1,8.7C315.9,357.5,314.6,357.5,313.3,357.5L313.3,357.5z"/>
	<path fill-rule="evenodd" clip-rule="evenodd" d="M377.3,287.8L377.3,287.8c-0.2-17.6-10.3-47.9-23.4-59.8
		c20.8,10.9,25.9,46.5,26.5,56.1c4.1-3.9,8.2-11.2,10.3-25.3c-0.6-17.7-21.5-58-53.7-76.3c-29.5,0.6-58.1-1.4-87.6-0.8
		c-38.9,17.4-59.8,46.6-69.6,83c-3.4,19.1,14.9,32.5,31.5,36.8c8.8,1.9,25.5,1.2,26-9.8c0.9-20.6,1-40.8,12.6-62
		c-4.4,11.1-6.2,25.3-6.8,31.6c-1.2,10.9-0.9,21.7-1.4,32.1c-0.6,12.6-19.4,12.8-30.1,10.7c-4.1,13.1-3.8,26.2,0.6,39.2
		c3,8.7,6.1,10.7,15.1,13.5c18.8,5.9,50.4,7.9,63.7,4.1c7.3-2.1,10.9-9.8,13.5-16.5c5.1-13.3,8-27.6,10-41.6
		c1.2,11.2-4,34.6-6.4,41.6c9,2.1,19,3.9,29.6,4.2c16.5,0.5,25.7,0.1,31.7-9.1C379,324.8,377.6,304.4,377.3,287.8L377.3,287.8z
		 M380.9,286.9c0.8,14.1,2.9,38.6-7,53.8c-7.5,11.5-19.3,13.4-32.2,13.1c-10.4-0.3-24.4-4.6-34.5-7c-6.9,16.5-12.7,19.9-29.3,20.2
		c-14.7,0.3-38.3-1.7-52.2-6.1c-9.5-3-13.9-6.5-17.3-16.2c-4.6-13.5-3.2-27.7,1-41.2c-16.3-4.7-39.7-19.4-35.2-39.5
		c10.6-39.4,36.7-67.8,74.3-84.6l1-0.2c29.2-0.6,58.4,1.4,87.6,0.8l1.3,0.3c22.3,12.7,56.8,49.8,57.7,77.8
		C395.5,267.6,389.1,281.1,380.9,286.9L380.9,286.9L380.9,286.9z"/>
	<path fill-rule="evenodd" clip-rule="evenodd" fill="#FFFFFF" d="M308.2,344.3c9,2.1,19,3.9,29.6,4.2c16.5,0.5,25.7,0.1,31.7-9.1
		c9.5-14.5,8.1-34.9,7.8-51.6l0,0c-0.2-17.6-10.3-47.9-23.4-59.8c20.8,10.9,25.9,46.5,26.5,56.1c4.1-3.9,8.2-11.2,10.3-25.3
		c-0.6-17.7-21.5-58-53.7-76.3c-29.5,0.6-58.1-1.4-87.6-0.8c-38.9,17.4-59.8,46.6-69.6,83c-3.4,19.1,14.9,32.5,31.5,36.8
		c8.8,1.9,25.5,1.2,26-9.8c0.9-20.6,1-40.8,12.6-62c-4.4,11.1-6.2,25.3-6.8,31.6c-1.2,10.9-0.9,21.7-1.4,32.1
		c-0.6,12.6-19.4,12.8-30.1,10.7c-4.1,13.1-3.8,26.2,0.6,39.2c3,8.7,6.1,10.7,15.1,13.5c18.8,5.9,50.4,7.9,63.7,4.1
		c7.3-2.1,10.9-9.8,13.5-16.5c5.1-13.3,8-27.6,10-41.6C315.7,314,310.5,337.3,308.2,344.3L308.2,344.3z"/>
	<path fill-rule="evenodd" clip-rule="evenodd" fill="#E5E6E5" d="M211.7,304c-4.1,13.1-3.8,26.2,0.6,39.2c3,8.7,6.1,10.7,15.1,13.5
		c18.8,5.9,50.4,7.9,63.7,4.1c0.1,0,0.2-0.1,0.3-0.1l0.2,0l0.2-0.1l0.1-0.1l0.2-0.1l0.1-0.1l0.2-0.1l0.1,0l0.2-0.1l0.1-0.1l0.2-0.1
		l0.1-0.1l0.2-0.1l0.1,0l0.2-0.1l0.1-0.1l0.2-0.1l0.1,0l0,0l0.3-0.2l0,0l0.3-0.2l0,0l0.1-0.1l0.2-0.1l0.1-0.1l0.2-0.1l0.1-0.1
		l0.2-0.1l0.1,0l0.2-0.1l0.1-0.1l0.1-0.1l0.1-0.1l0.1-0.1l0.1-0.1l0,0l0.2-0.2l0,0l0.1-0.1l0.2-0.1l0.2-0.2l0,0l0.2-0.2l0,0l0.2-0.2
		l0.1-0.1l0.1-0.1l0.1-0.1l0.1-0.1l0.2-0.2l0-0.1l0.2-0.2l0.1-0.1l0.1-0.2l0.1-0.1l0.1-0.2l0.1-0.1l0,0l0.2-0.2l0,0l0.2-0.2l0,0
		l0.2-0.2l0,0l0.2-0.2l0,0l0.2-0.2l0,0l0.2-0.2l0,0l0.1-0.2l0.1-0.2l0-0.1l0.1-0.2l0.1-0.1l0,0l0.1-0.2l0.1-0.1l0.1-0.1l0.1-0.2l0,0
		l0.1-0.2l0,0l0.2-0.3l0,0l0.2-0.3l0.1-0.2l0-0.1l0,0l0.1-0.2l0-0.1l0-0.1l0.1-0.2l0-0.1l0.1-0.2l0,0l0.1-0.2l0.1-0.2l0.1-0.1
		l0.1-0.2l0-0.1l0.1-0.2l0-0.1l0.1-0.3l0,0l0.1-0.3l0,0l0.1-0.3l0,0l0.1-0.3l0-0.1l0.1-0.2l0-0.1l0.1-0.2l0.1-0.1l0-0.1l0.2-0.6l0,0
		l0.1-0.1l0.1-0.2l0.1-0.3l0-0.1l0.1-0.3l0,0c-33.2,28-100.2-10.8-71.8-42.4l0,0c-0.2,0.1-0.4,0.1-0.6,0.2l0,0
		c-0.2,0-0.4,0.1-0.6,0.1l0,0c-0.3,0.1-0.6,0.1-0.9,0.2l-0.3,0.1l-0.3,0.1h0l-0.3,0.1l-0.3,0l0,0c-0.4,0.1-0.8,0.1-1.2,0.2l-0.2,0
		c-0.3,0-0.6,0.1-0.9,0.1l-0.3,0l-0.3,0h0l-0.3,0l-0.3,0h0l-0.3,0l-0.3,0h0c-0.4,0-0.8,0-1.2,0l-0.2,0l-0.2,0l-0.3,0H222l-0.3,0h0
		l-0.3,0h0l-0.3,0l-0.3,0l0,0l-0.3,0l-0.2,0l-0.1,0l-0.3,0h0l-0.3,0l-0.3,0l0,0l-0.3,0l-0.1,0l-0.4,0l-0.3,0l-0.1,0l-0.1,0l-0.3,0
		l-0.1,0l-0.1,0l-0.4,0l-0.1,0l-0.1,0l-0.4,0l-0.1,0l-0.3,0l-0.3,0h0l-0.3,0l-0.3,0l0,0l-0.3,0l-0.2,0l-0.1,0l-0.4-0.1l0,0l-0.1,0
		l-0.3,0l-0.1,0l-0.2,0l-0.3,0l-0.1,0l-0.2,0l-0.3-0.1l0,0l-0.2,0L211.7,304L211.7,304z M259,181.4h-0.3l-0.7,0h-0.3l-0.1,0h-0.2
		l-0.1,0l-0.3,0h-0.1l-0.5,0h0l-1.2,0l-0.2,0h0l-1.2,0h-0.2l-0.1,0l-0.2,0l-0.1,0l-0.6,0l-0.2,0l-0.1,0l-0.1,0h-0.1l-1.1,0l-0.1,0
		l-0.1,0h0l-0.2,0l-0.2,0l-0.2,0l-0.3,0l-0.2,0l-0.2,0l-0.2,0l-0.2,0c-38.9,17.4-59.8,46.6-69.6,83c-3.4,19.1,14.9,32.5,31.5,36.8
		c8.8,1.9,25.5,1.2,26-9.8l0-0.8l0-0.2l0-0.6l0-0.4l0-0.4l0-0.6l0-0.2l0-0.8l0-0.1l0-0.7l0-0.3l0-0.5l0-0.5l0-0.3l0-0.7l0-0.1l0-0.8
		l0-0.1l0-0.7l0-0.3l0-0.5l0-0.5l0-0.3l0-0.7l0-0.1l0-0.8l0-0.2l0-0.6l0-0.4l0-0.4l0-0.6l0-0.2l0-0.1l0.1-1.3l0-0.1l0-0.2l0-0.6l0,0
		l0-0.7l0-0.1l0-0.7l0.1-0.8l0-0.1l0.1-0.7c0-0.5,0.1-1,0.1-1.5l0-0.1l0.1-0.7l0.1-0.8l0.1-0.6l0-0.3l0.1-0.6l0,0
		c0.1-1.2,0.3-2.5,0.4-3.7l0-0.2c0.2-1.2,0.3-2.5,0.5-3.7l0-0.1c0.1-0.7,0.2-1.5,0.4-2.2l0-0.1c0.3-1.5,0.6-3,0.9-4.5l0-0.1
		c0.5-2.3,1.1-4.5,1.8-6.8l0-0.1c0.4-1.3,0.8-2.5,1.2-3.8c-8,15.9-8.7,33.7-11.8,43.7c-5.2,16.7-21.3,1.8-29-5.2
		c-7.4-6.6-11-13.1-8-25.1C206.6,209.9,215.4,201.1,259,181.4L259,181.4L259,181.4z M380.4,284l0.2-0.2l0,0l0.1-0.1l0.1-0.1l0.1-0.1
		l0,0l0.1-0.1l0.1-0.1l0,0l0.2-0.2h0l0.2-0.3l0.1-0.1l0.1-0.2l0.1-0.1l0.2-0.2l0,0l0.2-0.3l0,0l0.2-0.3l0.1-0.1l0.2-0.2l0.1-0.1
		l0.1-0.1l0.1-0.2l0,0l0.2-0.3l0,0l0.2-0.3l0,0l0.1-0.1l0.1-0.2l0.1-0.1l0.1-0.2l0.1-0.2l0,0l0.2-0.3l0,0l0.2-0.3l0,0l0.1-0.2
		l0.1-0.1l0.1-0.2l0.1-0.2l0-0.1l0-0.1l0.2-0.3l0,0l0.1-0.1l0.1-0.3l0.1-0.1l0.1-0.3l0.1-0.2l0.1-0.3l0.1-0.1l0-0.1l0.2-0.4l0,0
		l0-0.1l0.2-0.4l0.1-0.2l0.1-0.2l0.1-0.2l0.1-0.3l0-0.1l0-0.1l0.2-0.4l0-0.1l0.1-0.4l0-0.1l0.1-0.2l0.1-0.3l0.1-0.2l0.2-0.5l0,0
		l0.2-0.4l0,0l0.1-0.3l0.1-0.3l0.1-0.3l0.1-0.3l0.1-0.2l0.1-0.4l0-0.1l0,0l0.1-0.5v0l0.1-0.3l0.1-0.3l0.1-0.2l0.1-0.4l0.1-0.2l0-0.1
		l0.1-0.5l0,0l0.2-0.6l0-0.2l0.1-0.4l0.1-0.2l0.1-0.4l0-0.2l0.1-0.6l0,0l0,0l0.1-0.6l0,0l0.1-0.4l0.1-0.2l0.1-0.4l0.1-0.4l0.1-0.3
		l0-0.1l0.1-0.6l0,0l0.1-0.7l0-0.2l0.1-0.5l0.1-0.3l0.1-0.5l0-0.3l0.1-0.8c-0.6-17.7-21.5-58-53.7-76.3l-1,0l-0.4,0l-0.1,0l-1.1,0
		l-0.1,0l-0.1,0l-1,0l-0.3,0l-0.7,0l-0.7,0l-1.4,0l-0.8,0l-0.5,0l-0.4,0l-0.9,0h0l-1,0h-1.8l-0.2,0l-1,0h-0.3l-0.7,0l-0.7,0l-0.3,0
		l-1,0l-0.1,0l-0.9,0l-0.5,0l-0.4,0l-0.9,0h0l-1,0l-0.4,0l-0.6,0l-0.8,0l-0.2,0l-1,0l-0.2,0l-0.7,0l-0.6,0l-0.3,0l-1,0l-0.1,0
		l-0.9,0l-0.5,0l-1.4,0h0l-1,0l-0.4,0l-0.6,0l-0.8,0l-0.2,0l-1,0l-0.2,0l-0.7,0l-0.6,0l-0.3,0l-1,0l-0.1,0l-0.9,0l-0.5,0l-0.5,0
		l-0.9,0l-0.1,0l-1,0l-0.3,0l-0.6,0l-0.8,0l-0.2,0l-1,0l-0.2,0l-0.8,0l-0.6,0l-0.3,0l-1,0l-0.1,0l-0.9,0l-0.5,0l-0.5,0l-0.9,0
		l-0.1,0l-1,0l-0.3,0l-0.6,0l-0.7,0l-0.2,0l-1,0l-0.2,0l-0.8,0l-0.6,0l-0.4,0l-1,0l0,0l-0.9,0l-0.5,0l-0.5,0l-0.9,0l-0.1,0l-1,0
		l-0.3,0l-0.6,0l-0.7,0l-0.2,0l-1,0c21.1,2,37.5,8,61.4,7.5c32.2,8.3,49.4,48.8,50,66.5c-2.1,14.4-4.4,17.5-7.7,19.7
		C379.9,279,380.3,282.1,380.4,284L380.4,284L380.4,284z M377.4,290.1c0-0.8,0-1.6,0-2.4C377.3,288.6,377.4,289.3,377.4,290.1
		L377.4,290.1L377.4,290.1z M308.2,344.3c1.8,0.4,3.7,0.8,5.6,1.2l0,0c0.9,0.2,1.8,0.4,2.7,0.5l0,0l0.4,0.1v0l0.4,0.1l0,0l0.9,0.2v0
		l0.5,0.1l0,0l0.5,0.1l0,0l0.5,0.1l0,0l0.5,0.1v0l0.5,0.1l0,0l0.5,0.1l0,0l0.5,0.1l0,0l0.5,0.1v0l0.5,0.1l0,0l0.5,0.1l0,0l0.5,0.1
		l0,0l0.5,0.1h0l0.5,0.1l0.5,0.1l0,0l0.5,0.1l0,0l0.5,0.1l0,0l0.5,0.1l0.5,0.1v0l0.5,0.1l0.5,0.1h0l0.5,0.1h0l0.5,0.1l0.5,0l0,0
		l0.5,0l0.5,0l0.5,0l0.5,0l0,0l0.5,0l0.5,0l0.5,0l0.5,0l0.5,0l0,0c0.7,0,1.3,0.1,2,0.1l0,0l0.5,0v0l0.5,0l0.5,0l0.5,0l0.5,0
		c16.5,0.5,25.7,0.1,31.7-9.1c0.3-0.5,0.6-0.9,0.9-1.4l0.1-0.2c0.1-0.2,0.2-0.3,0.3-0.5l0.2-0.3l0.2-0.4l0.2-0.3
		c0.1-0.1,0.1-0.3,0.2-0.4l0.2-0.4l0.2-0.4l0.2-0.4l0.2-0.4l0.2-0.4l0.1-0.3l0.2-0.4l0.2-0.4l0.1-0.3l0.2-0.4l0.2-0.4l0.1-0.3
		l0.2-0.4l0.1-0.4l0.1-0.4l0.1-0.4l0.1-0.4l0.1-0.4l0.1-0.4l0.1-0.4l0.1-0.3l0.1-0.4l0.1-0.4l0.1-0.4l0.1-0.3l0.1-0.5l0.1-0.3
		l0.1-0.5l0.1-0.3l0.1-0.5l0.1-0.3l0.1-0.5l0.1-0.3l0.1-0.5l0.1-0.3l0.1-0.5l0.1-0.4l0.1-0.5l0-0.3l0.1-0.6l0-0.2l0.1-0.7l0-0.2
		l0.1-0.6l0-0.3l0.1-0.7l0-0.2l0.1-0.7l0-0.2l0.1-0.8l0-0.1l0.1-0.7l0-0.1l0.1-0.6l0-0.2l0-0.1l0.1-0.8c0.1-0.9,0.1-1.7,0.2-2.6v0
		l0-0.8l0,0l0-0.9l0-0.8l0-0.1c0-1.4,0.1-2.9,0.1-4.3V303c0-1.7,0-3.4,0-5.1l0-0.5l0-0.4l0-0.5l0-0.4c0-1.5-0.1-3-0.1-4.5l0-0.5
		l0-0.3l0-0.5l0,0c-0.1,11.9-2,22.9-5.7,31.6c-8.8,20.7-47.9,23.4-58.7,1.4c-0.2,1.4-0.5,2.7-0.7,4.1l-0.1,0.4
		c-0.6,2.9-1.2,5.7-1.8,8.2l-0.1,0.3c-0.2,0.9-0.4,1.8-0.6,2.6l-0.1,0.3l-0.1,0.3l-0.1,0.3l-0.1,0.3l-0.1,0.3l0,0l-0.1,0.2
		c-0.2,0.6-0.3,1.2-0.5,1.8l-0.1,0.2l0,0.1l0,0.1l-0.1,0.2l-0.1,0.2l-0.1,0.2l0,0.1l0,0.1l-0.1,0.2l0,0l-0.1,0.2L308.2,344.3
		L308.2,344.3L308.2,344.3z"/>
	<path fill-rule="evenodd" clip-rule="evenodd" d="M321.2,40.2c10.1,8.4,17.1,12.8,27.2,21.3c41.1,9.5,66.2,4.1,92.7-1
		c-17.6-13.6-37.9-26.9-91.5-36.1C334,29.7,324.5,34.9,321.2,40.2L321.2,40.2z M348.9,64.2c-9.3-7.8-21.3-15.4-31-23.5
		c0.4-0.6,0.8-1.2,1.2-1.8c4.7-7.5,20.7-17.3,29.3-18c37.1,6.3,71.1,17.4,100.8,40.5C422.3,66.5,374.9,77.1,348.9,64.2L348.9,64.2
		L348.9,64.2z"/>
	<path fill-rule="evenodd" clip-rule="evenodd" fill="#FFFFFF" d="M321.2,40.2c3.3-5.3,12.8-10.5,28.5-15.8
		c53.6,9.1,73.9,22.4,91.5,36.1c-26.5,5.1-51.7,10.5-92.7,1C338.3,53,331.3,48.6,321.2,40.2L321.2,40.2z"/>
	<path fill-rule="evenodd" clip-rule="evenodd" fill="#E5E6E5" d="M321.2,40.2c3.3-5.3,12.8-10.5,28.5-15.8c8,1.4,15.2,2.8,21.8,4.3
		c-37.6,2.8-48.7,18.8-13.2,29.5c14.7,4.4,29.4,5.3,43.8,4.4c13-0.8,40.1-1.9,17.1-16.9c8.4,4.6,14.6,8.9,22,14.7
		c-26.5,5.1-51.7,10.5-92.7,1C338.3,53,331.3,48.6,321.2,40.2L321.2,40.2z"/>
	<path fill-rule="evenodd" clip-rule="evenodd" d="M293.9,34.5c-43.8,0-83.6,39.4-81.8,84.8c2.5,63,60.7,80.8,94.4,82.2
		c20.3,0.8,61.7-36,61.7-81.4C368.1,74.7,337.7,34.5,293.9,34.5L293.9,34.5z M294.4,30.3c46.6,0,76.2,44.8,76.2,89.7
		c0,29.8-30.3,86.5-66.5,85c-20.6-0.8-42.9-8.5-60.1-19.8c-23.5-15.4-35.5-38-36.6-65.9C205.5,73.3,248.5,30.3,294.4,30.3
		L294.4,30.3L294.4,30.3z"/>
	<path fill-rule="evenodd" clip-rule="evenodd" fill="#FFFFFF" d="M293.9,34.5c43.8,0,74.3,40.2,74.3,85.6
		c0,45.4-41.4,82.2-61.7,81.4c-33.7-1.4-91.9-19.2-94.4-82.2c-0.3-6.9,0.4-13.6,1.9-20.1c-12.8,18.7-30.1,33.2-45.6,38.6
		c2-37.2-6.6-70,34.4-109.5c20.5,0.4,38.5,5.4,54.6,15.5C268.6,37.8,281.1,34.5,293.9,34.5L293.9,34.5z"/>
	<path fill-rule="evenodd" clip-rule="evenodd" fill="#E5E6E5" d="M240.2,71.8c-9,14.3-14,31.6-13.3,49.6
		c1.1,28.8,10.3,47.5,23.8,59.2c10.1,8.7,55.8,27.8,60.7,5.2c2.9,8.8,6.9,12.8,15.5,8.3c-7.6,5-14.8,7.6-20.5,7.4
		c-33.7-1.4-91.9-19.2-94.4-82.2c-0.3-6.9,0.4-13.6,1.9-20.1c4.8-6.9,8.9-14.5,12.2-22.3C229.4,74.2,234.6,72.7,240.2,71.8
		L240.2,71.8z M293.9,34.5c3,0,6,0.2,8.9,0.6c-14.6,0.1-28.1,4.8-39.5,12.6c-1.9-1.4-3.8-2.7-5.8-3.9
		C268.6,37.8,281.1,34.5,293.9,34.5L293.9,34.5L293.9,34.5z"/>
	<path fill-rule="evenodd" clip-rule="evenodd" fill="#E5E6E5" d="M221,87.6c-13,24.2-34,43.7-52.6,50.1c2-37.2-6.6-70,34.4-109.5
		c21.8,0.4,40.8,6,57.7,17.6c-18.1-10.6-41.2-17.3-58.7-3.7c-11.4,8.8-20.4,20.2-20.8,50.4C180.4,135.6,204.1,113.3,221,87.6
		L221,87.6z"/>
	<path fill-rule="evenodd" clip-rule="evenodd" fill="#E5E6E5" d="M252.1,164.8c-12.2-13.9-17.9-47-9.8-58.6
		c12.6,1.3,27.6,9.8,37.4,18.3c10.2,8.9,19.7,23.6,24.5,37.6C289.6,168.4,264.9,179.3,252.1,164.8L252.1,164.8z"/>
	<path fill-rule="evenodd" clip-rule="evenodd" d="M269,165.9c-17.8-3.8-33.2-39.5-26.9-56.3c12.6,1.3,26.4,6.7,36.2,15.3
		c10.2,8.9,17.5,22,22.3,36C291.3,164.9,279.3,168.1,269,165.9L269,165.9z"/>
	<path fill-rule="evenodd" clip-rule="evenodd" fill="#ED2124" d="M296.4,158.9c-11.6-33.4-30.2-42.4-50.7-44.4
		c-5.3,14.1,10.4,45.2,25.2,48.5C278.2,164.5,286.8,163.1,296.4,158.9L296.4,158.9z"/>
	<path fill-rule="evenodd" clip-rule="evenodd" fill="#E5E6E5" d="M367.7,127.3c-5.4,13.9-12.2,31.8-25.6,36.7
		c-5.6,2.1-18.3,0.1-25.5-2c3.9-12,14.1-22.8,22.7-27.4C347.9,130,358.6,127.9,367.7,127.3L367.7,127.3z"/>
	<path fill-rule="evenodd" clip-rule="evenodd" d="M366,128.9c-5.8,12.1-12.7,25.8-26.1,30.7c-5.6,2.1-13.4,3-20.6,1
		c3.9-12,11-20,19.9-24.8C347.5,131.3,356.9,129.5,366,128.9L366,128.9z"/>
	<path fill-rule="evenodd" clip-rule="evenodd" fill="#ED2124" d="M323.2,158.5c5.6-17,19.1-24.7,38.2-26
		C350.7,154.7,336.9,160.2,323.2,158.5L323.2,158.5z"/>
	<path fill-rule="evenodd" clip-rule="evenodd" d="M311.4,184c1.3,5.9,1.9,11.8,0,17.6l-3,0.7c2-6.1,3-11.6,1.8-17.7l-9.7-5.6
		l9.4,1.2l7.3-5.4L311.4,184L311.4,184z"/>
	<path fill-rule="evenodd" clip-rule="evenodd" d="M226.1,76.8c2.9-7,4.7-17.3,5.7-24.8c0.9,3.7-0.8,16.4-2.5,22.9
		c4.9-2.4,11.8-3.4,18.3-4c-5.1,1.1-13.3,3.5-19.8,8.6c-11.5,27.5-33.5,55.2-62.1,65.1c1.4-26.9-3.3-56.8,6.9-81.7
		c6.3-15.2,17.4-25.9,29.2-37.3c31.4,0.6,49.2,4.7,70.3,29.2l-0.1,0c-19.6-17.8-42.3-26.2-69.2-26.7c-41,39.5-32.4,72.4-34.4,109.5
		C189.7,130.3,214.2,105.8,226.1,76.8L226.1,76.8z"/>
</g>
</svg>
